<?xml version="1.0" encoding="UTF-8" standalone="no"?>
<!-- Created with Inkscape (http://www.inkscape.org/) -->

<svg
   xmlns:dc="http://purl.org/dc/elements/1.1/"
   xmlns:cc="http://creativecommons.org/ns#"
   xmlns:rdf="http://www.w3.org/1999/02/22-rdf-syntax-ns#"
   xmlns:svg="http://www.w3.org/2000/svg"
   xmlns="http://www.w3.org/2000/svg"
   xmlns:sodipodi="http://sodipodi.sourceforge.net/DTD/sodipodi-0.dtd"
   xmlns:inkscape="http://www.inkscape.org/namespaces/inkscape"
   version="1.1"
   id="svg22873"
   width="103.61928"
   height="160"
   viewBox="0 0 103.61928 160"
   sodipodi:docname="hiker4.svg"
   inkscape:version="0.92.1 unknown">
  <metadata
     id="metadata22879">
    <rdf:RDF>
      <cc:Work
         rdf:about="">
        <dc:format>image/svg+xml</dc:format>
        <dc:type
           rdf:resource="http://purl.org/dc/dcmitype/StillImage" />
        <dc:title></dc:title>
      </cc:Work>
    </rdf:RDF>
  </metadata>
  <defs
     id="defs22877" />
  <sodipodi:namedview
     pagecolor="#ffffff"
     bordercolor="#666666"
     borderopacity="1"
     objecttolerance="10"
     gridtolerance="10"
     guidetolerance="10"
     inkscape:pageopacity="0"
     inkscape:pageshadow="2"
     inkscape:window-width="1366"
     inkscape:window-height="704"
     id="namedview22875"
     showgrid="true"
     inkscape:zoom="0.40204429"
     inkscape:cx="362.98233"
     inkscape:cy="141.05424"
     inkscape:window-x="0"
     inkscape:window-y="21"
     inkscape:window-maximized="1"
     inkscape:current-layer="svg22873"
     fit-margin-top="0"
     fit-margin-left="0"
     fit-margin-right="0"
     fit-margin-bottom="0"
     showguides="false">
    <inkscape:grid
       type="xygrid"
       id="grid22956"
       originx="613.98979"
       originy="-122.43855" />
  </sodipodi:namedview>
  <path
     id="path22887"
     style="fill:#f9f9f9;stroke-width:0.28840059"
     d="M 58.138923,8.5166877e-4 C 55.702435,-0.03986833 50.590531,1.3851077 47.708772,3.0898837 c -1.01128,0.59824 -2.0646,1.489896 -2.39872,2.03052 -0.574992,0.930336 -0.57936,1.021792 -0.129472,2.625136 0.796984,2.8404403 0.736496,3.0193603 -1.84104,5.4422803 -1.268968,1.19284 -2.307464,2.36044 -2.307464,2.594512 0,0.234072 0.162352,0.354152 0.360624,0.26684 4.550152,-2.003776 5.092824,-2.028704 5.653232,-0.25768 0.34528,1.091192 0.3338,1.316864 -0.09883,1.977144 -0.48452,0.73944 -0.513752,0.744384 -3.719344,0.642624 -3.848224,-0.12216 -4.550352,-0.445272 -5.03556,-2.318192 -0.471696,-1.820784 -1.96772,-4.251008 -2.815248,-4.57324 -1.08072,-0.410888 -3.20128,-0.334872 -4.135872,0.148424 -1.468728,0.759512 -2.84296,2.668408 -3.19924,4.443448 -0.455008,2.266936 -0.559504,2.39948 -2.468824,3.137976 -2.374624,0.91848 -6.423119,3.7242 -7.463959,5.1726 -0.772768,1.075368 -1.434488,1.971032 -3.45092,4.670184 l -0.562416,0.75284 0.641048,-0.555792 c 0.391736,-0.339376 0.743856,-0.451512 0.904424,-0.288312 0.14456,0.146944 0.340408,1.435032 0.435456,2.862616 0.09506,1.427584 0.26088,3.439256 0.368216,4.470288 l 0.195152,1.874511 0.155368,-1.441879 c 0.110008,-1.020432 0.281872,-1.441888 0.588008,-1.441888 0.332096,0 0.432616,0.368504 0.432616,1.5862 0,1.217687 -0.10052,1.586199 -0.432616,1.586199 -0.7042,0 -1.35104,1.349688 -1.498416,3.126928 -0.08326,1.003936 -0.326104,1.849448 -0.614216,2.137568 -0.443224,0.443216 -0.525672,0.43704 -1.174408,-0.08685 -3.135928,-2.532408 -4.6810801,-3.591448 -5.2398561,-3.591448 -0.8811117,0 -2.8679757,0.939784 -4.4510316,2.105352 -3.77299191,2.777968 -5.39935983,8.90452 -3.78314391,14.250864 0.98774401,3.267368 2.26057591,4.646157 5.53449581,5.994917 0.563488,0.23213 0.717392,0.53098 0.789472,1.53188 0.07096,0.98556 0.190768,1.22399 0.576952,1.15041 0.267984,-0.051 0.5297197,-0.39133 0.5816637,-0.75631 0.096672,-0.67906 0.779008,-1.14857 1.141888,-0.78568 0.11124,0.11124 0.2678,0.93846 0.348008,1.8382 0.187752,2.10635 0.6809761,2.10635 0.8687281,0 0.160872,-1.80485 0.331592,-2.12449 0.999472,-1.8682 0.760984,0.29202 1.017456,1.53382 1.017456,4.92534 0,4.01837 0.326768,5.84803 1.457064,8.15868 1.817976,3.7165 4.338328,5.2727 8.540151,5.2727 2.358376,0 2.869768,-0.19386 5.26796,-1.99577 0.8614,-0.64722 1.8564,-1.17662 2.210824,-1.17662 0.729632,0 2.846352,2.22083 3.098824,3.25135 0.08648,0.35299 0.428168,2.58867 0.759472,4.96797 0.331304,2.37931 0.912248,5.75355 1.290944,7.49838 1.35804,6.257336 1.589736,7.537556 1.85936,10.274136 0.171848,1.74471 0.172256,3.19079 0.0016,3.89335 -0.149944,0.61474 -0.392904,5.27061 -0.53968,10.34646 -0.146792,5.07585 -0.466072,10.85117 -0.709584,12.83392 -0.243512,1.98275 -0.55816,5.39124 -0.699472,7.57448 -0.236976,3.66164 -0.31944,4.0596 -1.062304,5.13155 -0.671104,0.9684 -0.850704,1.62873 -1.077784,3.96155 -0.358776,3.68597 -0.32576,3.60391 -1.364512,3.37577 -0.887704,-0.19497 -3.831304,0.39674 -5.869552,1.17978 -0.820976,0.3154 -2.078744,0.40732 -4.792384,0.35021 -4.096343,-0.0862 -4.273935,-0.0242 -5.219023,1.82841 -0.546632,1.0715 -0.792584,4.24011 -0.362528,4.67018 v 0 c 0.106264,0.10623 19.994991,0.16016 44.197302,0.12 l 44.004047,-0.073 0.0742,-21.1186 0.0739,-21.1186 -0.81726,-0.91452 -0.81695,-0.91452 -2.104077,0.47525 c -1.157312,0.26135 -2.483632,0.47527 -2.947264,0.47527 -1.178504,0 -2.258824,-1.14478 -2.258824,-2.39368 0,-0.58002 -0.20524,-1.14763 -0.504616,-1.39515 -0.583872,-0.48273 -3.0356,-1.69072 -3.431352,-1.69072 -0.14736,0 -0.774736,-0.2586 -1.394216,-0.57442 -0.619456,-0.31582 -1.587696,-0.65236 -2.15176,-0.7481 -2.830536,-0.48041 -3.11932,-0.63943 -3.640088,-2.00304 -0.48844,-1.27896 -0.484888,-1.32342 0.27284,-3.37576 0.518768,-1.4051 0.907776,-3.34509 1.199048,-5.980706 0.237104,-2.14561 0.681832,-5.32881 0.988096,-7.07364 1.011184,-5.7608 1.163824,-7.28025 1.151056,-11.4473 -0.01792,-5.84917 -0.693848,-7.37297 -4.0702,-9.17616 -1.572648,-0.83989 -2.173456,-0.99321 -4.280808,-1.09357 -3.109296,-0.14806 -6.986328,0.51067 -9.776784,1.66136 -1.169736,0.48236 -2.238864,0.87694 -2.375664,0.87694 -0.392904,0 -0.291064,-1.16787 0.218208,-2.50135 0.671808,-1.75911 0.377608,-2.6188 -0.973896,-2.84525 -2.1078,-0.35315 -3.819136,-1.02926 -3.819136,-1.50883 0,-0.25539 0.35132,-1.54275 0.78064,-2.86103 l 0.779976,-2.39683 -0.70832,-3.100087 c -0.590288,-2.582864 -0.70344,-3.797456 -0.67736,-7.281744 0.03216,-4.303736 -0.04264,-4.60096 -1.162096,-4.609872 -0.76276,-0.0064 -1.61072,-0.834184 -1.601048,-1.563456 0.004,-0.332312 0.393808,-1.113752 0.865264,-1.736832 0.471448,-0.62308 0.857352,-1.31268 0.857352,-1.532208 0,-0.466272 -0.674376,-2.734455 -1.469664,-4.943647 l -0.558632,-1.552096 1.146624,-2.26736 c 0.630712,-1.247008 1.476312,-2.752456 1.879256,-3.345448 1.244512,-1.83148 0.968568,-2.403616 -1.2862,-2.667144 -1.21604,-0.14212 -1.297576,-0.206152 -1.297576,-1.016832 0,-0.72364 0.126096,-0.880008 0.771776,-0.954632 0.4246,-0.04904 0.927304,-0.276112 1.116944,-0.504624 0.189656,-0.228512 0.597112,-0.415576 0.90536,-0.415576 1.320888,0 1.58812,-0.438184 1.618416,-2.654512 0.02896,-2.119856 0.5434,-3.627872 1.657576,-4.859024 0.50096,-0.55356 0.56232,-0.425376 -1.742832,-3.624288 -0.530824,-0.736648 0.261704,-1.387736 2.242728,-1.8426243 2.902648,-0.66652 2.846608,-0.828992 -0.490112,-1.422624 -0.938736,-0.167007 -1.959168,-0.531 -2.267672,-0.809048 -0.308504,-0.27804 -1.261728,-1.951288 -2.118296,-3.71808 -0.856576,-1.766792 -1.75216,-3.37376803 -1.990088,-3.57124003 -0.216974,-0.180062 -0.636734,-0.267502 -1.199006,-0.27690200123 z M 70.483371,88.901034 c 0.03088,8e-4 0.05496,0.005 0.0736,0.0123 0.557128,0.2138 1.007496,3.26875 1.177568,7.98501 0.08865,2.45862 0.305728,5.481066 0.4822,6.716796 0.31024,2.17239 0.295768,2.29534 -0.439256,3.71208 -0.648672,1.25029 -0.785024,1.95748 -0.929048,4.81923 -0.219712,4.36518 0.09182,5.39775 1.907664,6.32049 1.239256,0.62974 1.480096,0.64963 5.335552,0.44716 5.536416,-0.29075 6.791144,-0.25378 7.076792,0.20842 0.293016,0.47411 -0.328336,1.60374 -1.822088,3.31324 -0.92456,1.05809 -1.252672,1.24605 -2.162824,1.23852 -0.59016,-0.005 -1.438417,0.13312 -1.884936,0.30663 -0.446536,0.1735 -1.124296,0.31547 -1.506,0.31547 -0.843384,0 -3.632664,-1.20343 -4.657232,-2.00936 -0.409848,-0.32239 -1.073224,-0.58642 -1.474096,-0.58642 -0.857104,0 -2.796624,1.07494 -4.817336,2.66968 -1.433984,1.13169 -1.452528,1.13697 -3.348928,0.95115 -2.573656,-0.25219 -3.68512,0.23589 -6.069432,2.66525 -2.79296,2.84571 -3.1398,4.63563 -1.463048,7.54858 0.908608,1.57847 0.945536,3.77614 0.09411,5.58375 -0.311512,0.66134 -0.628416,2.0231 -0.704208,3.02619 -0.16212,2.14542 -0.420704,2.49508 -3.153776,4.2644 -1.075632,0.69633 -2.113815,1.26569 -2.307143,1.26504 -0.449088,-0.002 -1.98204,-0.93472 -2.408816,-1.46652 -0.443824,-0.55304 -0.97064,-3.16245 -0.972952,-4.81954 -0.0016,-0.8675 -0.20808,-1.6673 -0.574728,-2.22094 -0.687272,-1.03775 -0.707608,-1.53911 -0.15,-3.67987 0.234672,-0.90095 0.687968,-3.23166 1.00768,-5.17954 0.714816,-4.35524 2.478568,-12.60063 3.071024,-14.35665 0.240824,-0.71379 0.821543,-2.57604 1.290311,-4.1384 0.468768,-1.56236 1.053784,-3.23041 1.300096,-3.70671 1.108112,-2.14284 2.419264,-7.76929 2.428096,-10.419096 0.01424,-4.29077 0.609432,-5.14652 4.690704,-6.7449 8.435528,-3.30368 10.446832,-4.05457 10.910464,-4.04145 z"
     inkscape:connector-curvature="0" />
</svg>
