<?xml version="1.0" encoding="UTF-8" standalone="no"?>
<!-- Created with Inkscape (http://www.inkscape.org/) -->

<svg
   xmlns:dc="http://purl.org/dc/elements/1.1/"
   xmlns:cc="http://creativecommons.org/ns#"
   xmlns:rdf="http://www.w3.org/1999/02/22-rdf-syntax-ns#"
   xmlns:svg="http://www.w3.org/2000/svg"
   xmlns="http://www.w3.org/2000/svg"
   xmlns:sodipodi="http://sodipodi.sourceforge.net/DTD/sodipodi-0.dtd"
   xmlns:inkscape="http://www.inkscape.org/namespaces/inkscape"
   width="59.33102mm"
   height="19.195581mm"
   viewBox="0 0 59.33102 19.195581"
   version="1.1"
   id="svg13258"
   inkscape:version="0.92.1 unknown"
   sodipodi:docname="mountainNavLogo.svg">
  <defs
     id="defs13252" />
  <sodipodi:namedview
     id="base"
     pagecolor="#ffffff"
     bordercolor="#666666"
     borderopacity="1.0"
     inkscape:pageopacity="0.0"
     inkscape:pageshadow="2"
     inkscape:zoom="0.35"
     inkscape:cx="57.835871"
     inkscape:cy="-60.867756"
     inkscape:document-units="mm"
     inkscape:current-layer="layer1"
     showgrid="false"
     inkscape:window-width="1366"
     inkscape:window-height="704"
     inkscape:window-x="0"
     inkscape:window-y="21"
     inkscape:window-maximized="1"
     inkscape:pagecheckerboard="false"
     width="296mm"
     fit-margin-top="0"
     fit-margin-left="0"
     fit-margin-right="0"
     fit-margin-bottom="0" />
  <metadata
     id="metadata13255">
    <rdf:RDF>
      <cc:Work
         rdf:about="">
        <dc:format>image/svg+xml</dc:format>
        <dc:type
           rdf:resource="http://purl.org/dc/dcmitype/StillImage" />
        <dc:title></dc:title>
      </cc:Work>
    </rdf:RDF>
  </metadata>
  <g
     inkscape:label="Layer 1"
     inkscape:groupmode="layer"
     id="layer1"
     transform="translate(-77.301759,-113.53316)">
    <g
       id="g13339"
       style="fill:#f9f9f9"
       transform="matrix(0.82196181,0,0,0.7174549,24.325859,32.078236)">
      <g
         style="fill:#f9f9f9"
         id="g13236"
         transform="matrix(0.35277777,0,0,-0.35277777,-27.972981,300.52628)">
        <path
           inkscape:connector-curvature="0"
           id="path3772"
           style="fill:#f9f9f9;fill-opacity:1;fill-rule:nonzero;stroke:none;stroke-width:0.1"
           d="m 299.322,474.783 c 4.535,2.238 9.287,8.858 14.167,9.981 5.529,1.274 8.079,-4.118 13.068,-6.56 0.228,2.557 -0.186,4.757 -0.468,7.13 4.687,0.292 4.349,2.746 7.051,4.965 0.724,0.596 2.587,1.664 2.999,2.284 0.157,0.237 2.766,4.435 2.501,4.216 6.751,5.585 10.794,0.821 17.912,0.75 -2.157,4.308 -0.244,6.184 3.551,6.97 2,-0.714 3.713,-0.65 5.684,-1.103 -3.233,0.774 -6.553,4.689 -6.481,8.018 0.098,4.368 3.93,4.395 4.115,8.582 1.03,0.293 2.77,0.291 3.801,0 -0.613,-4.333 3.178,-7.447 6.666,-8 -0.004,-0.736 -0.01,-1.747 0.203,-2.467 2.17,-0.183 4.242,-0.931 6.448,-0.867 1.293,-2.569 1.183,-1.898 3.361,-3.146 -1.436,5.176 -6.723,6.997 -10.109,11.065 -2.5,3.002 -4.879,10.156 -7.637,12.214 -4.965,3.706 -6.91,-1.681 -10.666,-5.531 -3.257,-3.339 -8.064,-6.222 -10.999,-9.668 -3.114,-3.656 -3.347,-8.427 -7.154,-12.168 -3.719,-3.655 -10.406,-8.505 -15.362,-10.83 -4.709,-2.208 -7.97,-1.816 -12.15,-5.003 -3.259,-2.485 -7.586,-7.294 -9.168,-10.832" />
        <path
           inkscape:connector-curvature="0"
           id="path3774"
           style="fill:#f9f9f9;fill-opacity:1;fill-rule:nonzero;stroke:none;stroke-width:0.1"
           d="m 335.988,488.116 c 6.107,0.504 11.439,4.797 17.234,5.915 0.314,-2.643 -0.715,-4.986 -2.333,-7.144 3.283,0.004 4.555,2.759 7.25,3.745 2.296,0.841 5.527,0.102 7.718,0.732 0.898,-2.439 1.031,-5.232 0.898,-7.826 3.159,0.891 6.209,5.838 9.381,7.716 3.748,2.218 6.961,3.564 11.852,2.912 9.195,-1.225 8.701,-11.415 18.465,-10.748 -4.137,1.792 -12.756,9.17 -13.014,14.032 -0.336,6.315 4.383,14.853 10.434,7.349 2.125,-2.635 1.675,-6.084 4.785,-8.55 2.613,-2.071 6.504,-2.111 9.33,-3.95 4.877,-3.171 7.699,-9.339 13.347,-11.23 0.071,1.535 1.129,3.761 0.752,5.646 10.475,-3.913 22.582,-16.984 34.512,-16.445 -6.875,4.85 -15.058,7.648 -21.764,13.345 -3.162,2.687 -5.611,4.364 -8.179,7.835 -0.68,0.917 -2.362,5.084 -3.301,5.379 -4.168,1.308 -1.701,-1.863 -4.051,-3.395 -1.65,-1.074 -0.115,-3.344 -3.316,-3.199 -1.237,0.056 -3.572,3.189 -4.483,4.014 -3.502,3.178 -6.029,5.339 -10.199,7.736 -6.117,3.517 -10.967,12.251 -17.15,14.732 -2.028,-3.306 -5.428,-7.606 -9.016,-9.168 -1.076,0.492 -1.941,0.196 -3.035,0.451 -1.881,-5.053 -7.877,-3.882 -11.969,-6.034 -4.562,-2.4 -7.011,-7.042 -12.18,-8.264 -0.369,10.187 -19.449,-2.427 -21.301,-5.586" />
        <path
           inkscape:connector-curvature="0"
           id="path3776"
           style="fill:#f9f9f9;fill-opacity:1;fill-rule:nonzero;stroke:none;stroke-width:0.1"
           d="m 299.988,463.45 c 3.454,0.6 7.419,2.084 10.667,3.349 1.491,0.58 3.789,0.807 5.2,1.304 1.142,0.404 1.706,2.743 3.452,3.23 1.33,0.37 2.909,-2.252 4.699,-1.896 1.824,0.363 2.349,1.802 4,2.697 3.012,1.632 5.334,4.028 8.551,5.247 0.528,-4.402 -3.473,-7.135 -2.453,-11.877 2.776,2.138 2.609,5.896 4.403,8.759 1.752,2.795 3.82,3.709 5.597,6.404 6.913,1.126 17.37,-4.128 23.185,-6.584 3.904,-1.65 8.9,-2.156 12.699,-4.447 3.222,-1.944 5.232,-5.284 9.765,-4.821 -5.043,-2.665 -15.293,-5.464 -18.214,-10.597 8.543,1.086 16.441,9.036 24.98,9.798 1.832,-3.483 5.195,-2.565 6.285,1.349 1.99,-0.724 4.039,-0.228 5.721,1.351 0.416,-2.446 1.262,-2.952 2.699,-4.546 -1.875,10.87 12.399,1.278 17.416,-1.238 7.039,-3.532 15.367,-4.802 23.147,-6.162 -8.256,1.939 -17.241,7.187 -25.166,10.678 -5.389,2.373 -15.684,6.83 -17.948,12.084 -9.627,-8.162 -13.963,-9.874 -25.351,-4.082 -8.336,4.24 -18.797,7.531 -28.145,11.151 -6.041,2.338 -6.325,0.409 -12.503,-1.201 -2.157,-0.562 -3.772,0.483 -6.186,-0.6 -1.89,-0.848 -4.217,-3.985 -6.353,-5.202 -5.344,-3.043 -10.322,-2.296 -15.48,-4.281 -5.142,-1.978 -8.818,-7.17 -12.667,-10.534" />
        <path
           inkscape:connector-curvature="0"
           id="path3778"
           style="fill:#f9f9f9;fill-opacity:1;fill-rule:nonzero;stroke:none;stroke-width:0.1"
           d="m 376.656,475.45 c 10.66,2.829 23.99,2.59 29.48,13.914 2.781,-0.521 4.481,-3.102 7.201,-3.94 2.163,-0.665 2.811,1.592 5.803,-0.107 4.723,-2.684 6.369,-8.724 12.182,-11.198 10.043,-4.272 23.097,-6.562 32.795,-6.669 -16.549,0 -43.754,-1.796 -51.631,15.897 -0.787,-1.055 -3.022,-2.08 -3.815,-3.31 -0.588,1.37 -1.968,1.845 -2.115,4.029 -9.242,-6.032 -19.529,-9.646 -30.568,-10.616" />
        <path
           inkscape:connector-curvature="0"
           id="path3780"
           style="fill:#f9f9f9;fill-opacity:1;fill-rule:nonzero;stroke:none;stroke-width:0.1"
           d="m 262.504,471.427 c 8.241,4.461 18.546,4.085 22.791,21.939 2.149,-0.822 3.463,-4.892 5.566,-6.214 1.671,-1.049 2.173,2.511 4.486,-0.168 3.651,-4.233 4.924,-13.756 9.418,-17.656 7.763,-6.735 17.855,-10.345 25.351,-10.515 -12.792,0 -33.824,-2.831 -39.914,25.066 -0.608,-1.665 -2.335,-3.28 -2.947,-5.22 -0.455,2.162 -1.524,2.91 -1.636,6.353 -7.144,-9.509 -15.097,-15.209 -23.631,-16.739" />
      </g>
    </g>
  </g>
</svg>
